<svg width="24" height="16" viewBox="0 0 24 16" fill="none" xmlns="http://www.w3.org/2000/svg">
<rect width="24" height="16" rx="2" fill="#1434CB"/>
<path d="M14.825 4.87645C13.4996 4.87645 12.3152 5.56343 12.3152 6.83269C12.3152 8.28828 14.4158 8.38882 14.4158 9.12007C14.4158 9.42797 14.063 9.70358 13.4603 9.70358C12.605 9.70358 11.9658 9.31846 11.9658 9.31846L11.6923 10.5993C11.6923 10.5993 12.4287 10.9246 13.4064 10.9246C14.8554 10.9246 15.9957 10.2039 15.9957 8.91292C15.9957 7.37482 13.8863 7.27727 13.8863 6.59855C13.8863 6.35736 14.176 6.09308 14.7769 6.09308C15.4549 6.09308 16.0081 6.37317 16.0081 6.37317L16.2758 5.13611C16.2758 5.13611 15.6739 4.87645 14.825 4.87645ZM2.69884 4.96981L2.66675 5.15654C2.66675 5.15654 3.22435 5.25859 3.72656 5.46215C4.3732 5.69558 4.41926 5.83148 4.52816 6.25355L5.71489 10.8283H7.3057L9.75646 4.96981H8.1693L6.59454 8.95304L5.95194 5.57667C5.89301 5.19025 5.5945 4.96981 5.22911 4.96981H2.69884ZM10.3947 4.96981L9.14961 10.8283H10.6631L11.9038 4.96981H10.3947ZM18.836 4.96981C18.471 4.96981 18.2776 5.1652 18.1357 5.50665L15.9184 10.8283H17.5056L17.8126 9.94137H19.7463L19.933 10.8283H21.3334L20.1117 4.96981H18.836ZM19.0424 6.5526L19.5128 8.75099H18.2525L19.0424 6.5526Z" fill="white"/>
</svg>
