<svg width="24" height="16" viewBox="0 0 24 16" fill="none" xmlns="http://www.w3.org/2000/svg">
<mask id="mask0_1154_9" style="mask-type:luminance" maskUnits="userSpaceOnUse" x="0" y="0" width="24" height="16">
<path d="M0 0.5H24V15.4852H0V0.5Z" fill="white"/>
</mask>
<g mask="url(#mask0_1154_9)">
<path d="M13.1751 15.4454H22.2102C23.1915 15.4454 23.9829 14.6369 24 13.6746V2.32811C24 1.34769 23.2086 0.540161 22.2102 0.540161H1.7898C0.808458 0.540161 0 1.33059 0 2.32811V13.6575C0 14.6376 0.791356 15.4454 1.7898 15.4454H13.1477L13.1751 15.4448V15.4454Z" fill="#00A2E5"/>
</g>
<mask id="mask1_1154_9" style="mask-type:luminance" maskUnits="userSpaceOnUse" x="0" y="3" width="24" height="4">
<path d="M0 3.01897H24V6.36227H0V3.01897Z" fill="white"/>
</mask>
<g mask="url(#mask1_1154_9)">
<path d="M0 6.30539V3.0249H24V6.30539H0Z" fill="#CAEBFD"/>
</g>
<path d="M4.44078 13.7986H1.94078C1.72125 13.7986 1.54712 13.6207 1.54712 13.4052V10.9118C1.54712 10.6922 1.72529 10.5184 1.94078 10.5184H4.44078C4.6603 10.5184 4.83443 10.6963 4.83443 10.9118V13.4093C4.8307 13.6207 4.65626 13.7986 4.44078 13.7986Z" fill="#CAEBFD"/>
<path d="M7.32747 13.7986C6.41951 13.7986 5.68506 13.0651 5.68506 12.158C5.68506 11.2519 6.41951 10.5184 7.32747 10.5184C8.2345 10.5184 8.96864 11.2519 8.96864 12.158C8.96864 13.0651 8.2345 13.7986 7.32747 13.7986Z" fill="#CAEBFD"/>
</svg>
