<?xml version="1.0" encoding="utf-8"?>
<!-- Generator: Adobe Illustrator 24.0.2, SVG Export Plug-In . SVG Version: 6.00 Build 0)  -->
<svg version="1.1" id="Layer_1" xmlns="http://www.w3.org/2000/svg" xmlns:xlink="http://www.w3.org/1999/xlink" x="0px" y="0px"
	 viewBox="0 0 252 144" style="enable-background:new 0 0 252 144;" xml:space="preserve">
<style type="text/css">
	.st0{fill:#00FB7D;}
</style>
<g id="logo__1_" transform="translate(-448.885 -1594)">
	<path id="Path_1881_1_" d="M457.4,1713.01h61.32v-18.06h-34.23l32.76-40.53v-14.91h-59.96v18.06h33.18l-33.08,40.74V1713.01z
		 M532.68,1684.55c0,20.27,12.91,29.82,32.23,29.82c19.42,0,32.34-9.56,32.34-29.82v-45.04h-20.37v45.15
		c0,7.66-4.52,12.6-11.97,12.6c-7.56,0-11.86-4.94-11.86-12.6v-45.15h-20.37V1684.55z M613.95,1713.01h19.21v-45.57l20.48,27.93
		l20.47-27.93v45.57h19.01v-73.5h-19.95l-19.53,27.3l-19.43-27.3h-20.26V1713.01z"/>
	<rect id="Rectangle_1025_1_" x="532.41" y="1617.01" class="st0" width="65" height="9"/>
</g>
</svg>
